<svg width="165" height="50" viewBox="0 0 165 50" fill="none" xmlns="http://www.w3.org/2000/svg">
<path d="M0 19.3684V14.5691H22.6117V19.3684H14.1827V42.101H8.42896V19.3684H0Z" fill="white"/>
<path d="M88.2084 42.5043C86.0843 42.5043 84.256 42.0741 82.7235 41.2138C81.1999 40.3444 80.0259 39.1166 79.2013 37.5303C78.3768 35.935 77.9646 34.0485 77.9646 31.8706C77.9646 29.7466 78.3768 27.8825 79.2013 26.2782C80.0259 24.674 81.1865 23.4238 82.6832 22.5275C84.1888 21.6313 85.9544 21.1832 87.9798 21.1832C89.3421 21.1832 90.6102 21.4028 91.7843 21.8419C92.9673 22.2721 93.998 22.9219 94.8763 23.7912C95.7635 24.6605 96.4536 25.7539 96.9465 27.0714C97.4395 28.3799 97.6859 29.9124 97.6859 31.669V33.2419H80.2499V29.6928H92.2951C92.2951 28.8683 92.1159 28.1379 91.7574 27.5016C91.3989 26.8653 90.9015 26.3678 90.2652 26.0094C89.6378 25.6419 88.9074 25.4582 88.0739 25.4582C87.2046 25.4582 86.4339 25.6598 85.7617 26.0631C85.0985 26.4575 84.5787 26.9907 84.2023 27.6629C83.8258 28.3261 83.6332 29.0655 83.6242 29.881V33.2553C83.6242 34.277 83.8124 35.1598 84.1888 35.9036C84.5742 36.6475 85.1164 37.2211 85.8155 37.6244C86.5145 38.0277 87.3435 38.2293 88.3025 38.2293C88.9388 38.2293 89.5213 38.1397 90.0501 37.9605C90.5789 37.7812 91.0315 37.5124 91.4079 37.1539C91.7843 36.7954 92.0711 36.3562 92.2682 35.8364L97.5649 36.186C97.2961 37.4586 96.7449 38.5699 95.9114 39.5199C95.0869 40.4609 94.0204 41.1958 92.7119 41.7246C91.4124 42.2444 89.9112 42.5043 88.2084 42.5043Z" fill="white"/>
<path d="M107.311 42.4909C105.994 42.4909 104.82 42.2623 103.789 41.8053C102.759 41.3392 101.943 40.6536 101.342 39.7484C100.751 38.8343 100.455 37.6961 100.455 36.3338C100.455 35.1867 100.666 34.2232 101.087 33.4435C101.508 32.6638 102.082 32.0365 102.808 31.5615C103.534 31.0865 104.358 30.728 105.281 30.486C106.213 30.244 107.19 30.0737 108.212 29.9751C109.413 29.8497 110.381 29.7332 111.116 29.6256C111.851 29.5091 112.384 29.3388 112.716 29.1148C113.047 28.8907 113.213 28.5591 113.213 28.12V28.0393C113.213 27.1879 112.944 26.5292 112.406 26.0631C111.878 25.5971 111.125 25.3641 110.148 25.3641C109.117 25.3641 108.297 25.5926 107.688 26.0497C107.078 26.4978 106.675 27.0624 106.478 27.7435L101.181 27.3134C101.45 26.0587 101.979 24.9742 102.767 24.0601C103.556 23.137 104.573 22.429 105.819 21.936C107.074 21.4341 108.526 21.1832 110.175 21.1832C111.322 21.1832 112.42 21.3176 113.468 21.5865C114.526 21.8554 115.462 22.2721 116.278 22.8367C117.103 23.4014 117.752 24.1273 118.227 25.0146C118.702 25.8929 118.94 26.9459 118.94 28.1737V42.101H113.509V39.2376H113.347C113.016 39.8829 112.572 40.452 112.016 40.9449C111.461 41.4289 110.793 41.8097 110.013 42.0876C109.234 42.3564 108.333 42.4909 107.311 42.4909ZM108.951 38.5385C109.794 38.5385 110.538 38.3727 111.183 38.0411C111.828 37.7006 112.335 37.2435 112.702 36.6699C113.07 36.0963 113.253 35.4466 113.253 34.7206V32.5294C113.074 32.6459 112.828 32.7534 112.514 32.852C112.209 32.9416 111.864 33.0268 111.479 33.1074C111.093 33.1791 110.708 33.2463 110.323 33.3091C109.937 33.3629 109.588 33.4121 109.274 33.457C108.602 33.5555 108.015 33.7124 107.513 33.9275C107.011 34.1426 106.621 34.4338 106.343 34.8013C106.066 35.1598 105.927 35.6079 105.927 36.1456C105.927 36.9253 106.209 37.5213 106.774 37.9336C107.347 38.3369 108.073 38.5385 108.951 38.5385Z" fill="white"/>
<path d="M128.572 36.1591L128.585 29.2895H129.419L136.033 21.4521H142.607L133.721 31.8303H132.363L128.572 36.1591ZM123.383 42.101V14.5691H129.11V42.101H123.383ZM136.288 42.101L130.212 33.1074L134.03 29.061L142.997 42.101H136.288Z" fill="white"/>
<path d="M149.285 49.8444C148.559 49.8444 147.878 49.7861 147.241 49.6696C146.614 49.5621 146.094 49.4231 145.682 49.2529L146.972 44.9779C147.645 45.184 148.25 45.296 148.787 45.314C149.334 45.3319 149.805 45.2064 150.199 44.9376C150.602 44.6687 150.929 44.2116 151.18 43.5663L151.516 42.6925L144.109 21.4521H150.132L154.407 36.6161H154.622L158.937 21.4521H165L156.974 44.3326C156.589 45.4439 156.065 46.4118 155.401 47.2364C154.747 48.0699 153.918 48.7107 152.914 49.1588C151.911 49.6158 150.701 49.8444 149.285 49.8444Z" fill="white"/>
<path d="M27.6276 23.0881C27.6276 23.0881 30.1006 39.2832 37.4948 38.9737C44.889 38.6642 39.2883 10.5613 46.6406 9.50741C53.9929 8.45349 53.431 35.3108 60.674 35.3108C67.9171 35.3108 80.1398 3.62241 80.1398 3.62241" stroke="url(#paint0_linear_25_78)" stroke-width="7.24305" stroke-linecap="round"/>
<defs>
<linearGradient id="paint0_linear_25_78" x1="27" y1="41.3745" x2="83.2253" y2="-6.32365" gradientUnits="userSpaceOnUse">
<stop offset="0.1875" stop-color="#40A3B9"/>
<stop offset="0.322115" stop-color="#68448E"/>
<stop offset="0.456731" stop-color="#BD82C8"/>
<stop offset="0.745192" stop-color="#D42436"/>
<stop offset="1" stop-color="#FB7B5C"/>
</linearGradient>
</defs>
</svg>
